ply
format ascii 1.0
comment PCL generated
element vertex 400
property float x
property float y
property float z
property uchar red
property uchar green
property uchar blue
element camera 1
property float view_px
property float view_py
property float view_pz
property float x_axisx
property float x_axisy
property float x_axisz
property float y_axisx
property float y_axisy
property float y_axisz
property float z_axisx
property float z_axisy
property float z_axisz
property float focal
property float scalex
property float scaley
property float centerx
property float centery
property int viewportx
property int viewporty
property float k1
property float k2
end_header
251 169 46 105 69 50
235 211 34 73 42 50
265 234 54 133 111 84
264 235 53 137 113 88
265 235 54 138 115 88
245 255 22 150 152 159
245 256 22 150 151 158
245 257 22 149 148 155
245 258 22 147 146 153
245 259 23 144 143 150
185 459 88 82 107 123
168 468 84 87 102 115
340 620 109 95 122 156
341 620 109 94 121 155
342 620 109 97 124 158
343 620 109 99 126 160
343 620 108 99 126 160
344 620 108 100 127 161
345 620 108 100 127 161
346 620 108 98 125 159
347 620 108 93 120 154
348 620 108 89 116 150
349 620 108 87 114 148
249 879 105 171 130 96
306 433 174 76 88 107
306 434 175 74 86 105
306 435 176 72 85 104
291 505 192 115 132 154
291 508 193 142 159 181
291 509 193 153 170 192
291 510 193 151 168 190
291 512 194 123 140 162
270 545 207 84 106 143
270 546 205 81 103 140
270 547 205 73 96 133
270 548 205 68 90 128
270 549 205 63 83 123
269 552 206 74 94 134
206 64 55 132 100 84
206 65 55 133 100 84
205 66 55 134 100 84
205 67 55 135 100 84
205 68 55 135 100 84
205 69 55 134 99 83
205 70 55 134 99 82
205 71 55 135 98 82
205 72 55 136 98 82
206 73 55 135 98 82
206 74 55 135 99 81
206 75 55 134 99 80
225 124 167 112 99 85
226 124 167 112 99 85
228 124 168 113 100 85
223 234 278 93 102 110
223 235 278 90 99 107
189 445 80 48 85 121
189 446 82 49 88 123
188 448 83 45 84 119
185 450 84 43 78 111
168 473 135 77 80 89
166 474 136 77 80 89
164 476 136 75 79 88
163 475 135 74 78 88
169 464 157 51 72 89
167 464 158 51 74 91
168 465 156 52 73 90
167 465 157 52 75 92
168 466 155 52 73 90
164 476 135 75 79 89
138 537 123 107 88 76
147 571 135 62 76 100
147 572 135 71 85 110
167 624 135 56 75 92
167 625 135 59 78 95
167 626 135 61 80 97
167 627 135 62 81 98
167 628 135 62 81 98
167 629 135 61 80 97
167 630 135 60 79 95
167 631 135 59 78 94
167 632 135 57 76 92
166 652 135 79 90 93
165 654 135 79 93 96
164 656 135 82 96 99
163 657 135 83 97 100
163 658 135 84 98 102
163 659 135 84 98 102
162 660 135 84 98 102
162 661 135 82 96 100
161 662 135 81 95 99
110 685 119 75 95 127
110 686 119 75 98 130
110 687 119 75 99 132
110 688 119 77 100 132
110 689 119 78 101 133
110 690 119 81 104 136
110 691 119 86 109 141
110 692 119 98 121 153
110 693 119 102 125 157
110 694 119 105 128 160
111 695 119 106 129 161
111 696 119 106 129 161
111 697 119 106 129 161
111 698 119 105 128 160
111 699 119 104 127 159
111 700 119 102 125 157
111 701 119 101 124 156
111 702 119 100 123 155
111 703 119 99 123 155
111 704 119 99 123 155
111 705 119 102 124 157
111 706 119 103 125 158
111 707 119 104 126 159
112 708 119 106 128 161
143 716 135 61 74 101
134 717 135 62 75 101
142 718 136 61 75 100
134 719 136 61 75 100
140 720 137 66 80 105
138 722 138 79 93 118
123 728 140 115 129 154
122 729 140 119 133 158
122 730 141 113 127 152
123 731 141 114 128 153
156 732 85 88 102 167
155 732 86 72 87 145
153 732 86 63 78 138
154 733 86 75 89 153
156 735 86 94 108 172
303 153 170 143 79 29
259 184 249 83 64 65
301 225 178 59 68 93
300 225 178 59 68 93
295 237 181 89 70 82
289 314 94 99 95 96
291 316 95 100 100 105
287 317 96 85 91 103
289 318 96 86 90 100
292 319 96 87 89 96
287 319 97 76 89 101
288 320 97 78 87 98
290 321 97 79 85 94
291 322 97 77 81 89
290 324 98 77 75 84
318 325 92 164 125 93
317 325 93 165 127 96
293 325 98 95 71 72
317 327 96 135 97 69
290 327 99 104 72 71
302 328 92 154 117 90
293 328 99 112 78 75
299 329 92 152 115 88
307 329 93 154 116 88
299 330 92 153 116 89
291 330 100 117 82 77
302 331 92 156 119 92
291 332 101 117 82 77
292 334 102 118 86 86
295 335 102 117 85 86
293 337 103 113 86 88
298 338 103 114 86 87
294 339 104 115 93 95
297 340 104 118 95 96
302 341 104 121 97 98
294 341 105 122 101 103
297 342 105 122 100 102
301 343 105 122 99 101
316 345 99 125 92 95
324 346 98 122 91 95
324 347 98 121 96 101
324 348 98 121 101 107
294 343 106 127 108 110
296 344 106 126 105 108
299 345 106 126 104 107
300 346 106 124 103 107
301 347 106 122 105 110
300 348 106 120 107 113
287 350 108 123 124 131
287 351 108 118 121 131
299 355 108 102 105 116
301 358 109 100 103 114
300 360 110 102 105 116
270 388 305 94 120 154
286 507 190 143 155 178
277 545 200 118 129 161
277 546 200 113 124 156
147 462 118 90 67 65
171 458 129 80 85 86
166 483 130 73 71 77
281 893 135 94 70 52
317 908 130 131 110 92
316 909 130 125 105 88
316 909 131 128 108 91
315 909 132 132 112 95
315 909 133 134 114 97
314 909 134 136 116 99
313 909 135 140 119 101
313 909 136 144 122 103
312 909 137 147 125 106
306 902 144 129 105 87
293 902 145 122 98 80
305 903 144 135 111 93
295 903 145 128 104 86
310 904 143 148 124 106
305 904 144 141 117 99
298 904 145 134 110 92
306 905 144 145 121 103
300 905 145 139 115 97
290 905 146 131 107 89
302 906 145 143 119 101
298 906 146 136 112 94
297 906 147 130 106 88
296 906 148 123 99 81
296 906 149 118 94 76
296 906 150 113 89 71
296 906 151 110 85 67
296 906 152 108 82 63
295 906 152 108 82 63
295 906 153 106 78 60
294 906 153 106 78 60
304 907 146 141 117 99
304 907 147 134 110 92
303 907 148 128 104 86
311 909 138 150 128 109
279 894 154 102 81 56
279 910 122 88 69 53
280 910 123 91 71 54
288 910 132 101 81 64
289 910 134 100 80 63
289 910 135 101 80 62
291 910 136 105 84 66
292 910 137 109 88 70
298 910 138 127 106 88
305 910 139 147 125 106
308 910 140 159 135 117
292 911 139 99 79 61
296 911 140 115 94 76
304 911 141 141 120 101
316 911 144 171 149 130
317 911 145 171 148 130
292 912 141 98 79 62
297 912 142 101 82 64
304 912 143 128 108 90
315 912 146 162 139 122
315 912 147 156 132 114
293 913 143 98 79 62
297 913 144 100 80 63
302 913 145 122 102 85
307 913 146 134 113 96
312 913 147 135 112 95
296 914 146 118 97 80
299 914 147 123 101 83
303 914 148 126 103 86
307 914 149 126 102 85
298 915 150 122 98 82
302 915 151 123 98 80
302 916 153 128 102 83
213 612 74 85 104 130
213 613 74 84 106 131
211 843 138 178 138 120
226 1014 139 162 132 111
224 1014 146 177 145 124
266 26 140 131 109 102
267 26 141 129 103 95
252 109 108 84 79 75
252 110 108 84 79 76
252 111 108 85 80 76
252 116 107 86 81 77
254 123 104 84 77 68
256 146 103 93 83 69
282 286 91 118 119 134
157 578 109 52 55 80
170 681 121 81 91 109
170 682 121 77 87 104
170 683 121 74 84 101
170 684 121 70 80 98
169 685 121 67 77 96
168 687 121 62 72 91
161 710 136 95 86 101
303 146 162 117 94 79
299 150 162 124 77 45
299 151 162 127 72 32
299 152 162 133 69 22
299 153 162 135 66 17
299 154 162 134 66 17
299 155 162 134 66 18
299 156 162 134 66 18
299 157 162 134 66 17
299 158 162 134 66 17
299 159 163 133 66 18
158 744 100 82 83 102
363 629 152 52 63 77
230 25 242 129 96 92
231 25 242 129 98 93
235 25 241 129 96 92
194 429 91 34 65 97
192 430 91 29 64 99
192 431 91 26 63 101
192 432 91 25 62 101
192 433 91 28 64 102
191 434 91 30 66 103
191 435 91 33 69 106
191 436 91 36 71 107
250 177 22 135 75 59
249 179 22 137 82 70
249 180 22 137 86 74
248 181 22 138 90 79
248 182 22 139 90 83
291 343 93 95 90 102
294 347 96 99 90 100
226 864 163 111 98 83
239 862 164 98 84 71
240 862 164 104 87 72
244 862 164 112 96 80
245 862 164 115 98 81
250 865 163 126 104 81
251 865 163 126 104 81
252 865 163 126 104 81
253 865 163 125 103 80
192 427 96 60 94 121
180 447 97 81 97 117
169 454 98 87 93 98
169 454 96 93 95 97
170 453 96 90 94 97
171 453 96 93 94 96
202 924 114 120 101 95
202 923 115 120 102 93
203 924 114 123 103 95
236 936 77 111 77 63
236 937 78 108 78 62
237 936 77 111 77 63
238 936 77 109 76 62
240 935 77 106 74 59
228 934 93 81 71 68
228 934 94 80 70 67
228 934 95 80 69 66
228 933 96 79 68 64
228 933 97 79 68 65
228 933 98 80 69 66
228 933 99 80 69 66
228 933 100 81 70 67
247 942 77 93 76 67
253 942 77 101 84 76
254 942 77 102 85 78
255 942 77 103 86 80
255 941 78 102 85 78
255 937 96 72 60 53
297 908 150 130 101 75
298 908 150 128 97 73
299 908 150 127 95 72
316 913 158 137 105 82
316 914 158 139 107 84
315 915 159 141 109 86
316 915 159 140 108 85
150 579 112 38 65 101
305 912 142 159 137 114
305 910 143 160 138 113
306 912 142 158 136 113
307 912 142 156 135 113
316 909 150 133 115 93
325 903 129 144 119 90
325 903 144 167 139 115
326 903 129 152 124 95
326 903 130 152 124 95
326 903 143 171 142 116
326 903 144 173 144 118
315 904 147 155 132 116
315 906 146 153 133 116
316 904 147 152 133 116
316 904 148 151 131 114
317 904 147 150 134 116
317 904 148 149 132 114
318 904 147 150 134 116
318 904 148 150 133 115
177 467 82 95 90 85
267 19 138 104 84 65
267 19 139 105 84 64
267 18 143 106 86 67
239 670 221 151 95 56
239 671 221 147 93 57
239 672 221 143 93 59
239 673 221 139 91 60
441 665 137 71 86 98
442 667 137 73 88 101
442 666 138 71 84 97
166 501 125 65 80 94
162 501 127 66 81 96
163 502 126 64 79 94
163 503 125 64 79 95
163 504 125 64 78 94
162 516 131 100 101 106
162 516 132 102 103 108
162 516 133 104 105 110
162 516 134 107 108 113
162 516 135 111 112 117
162 516 136 114 115 120
128 668 80 74 95 114
127 668 80 76 97 120
128 668 81 73 93 110
127 668 84 72 89 107
0 0 0 1 0 0 0 1 0 0 0 1 0 0 0 0 0 400 1 0 0
